<?xml version="1.0" encoding="UTF-8" standalone="no"?>
<svg
  xmlns:dc="http://purl.org/dc/elements/1.1/"
  xmlns:cc="http://creativecommons.org/ns#"
  xmlns:rdf="http://www.w3.org/1999/02/22-rdf-syntax-ns#"
  xmlns:svg="http://www.w3.org/2000/svg"
  xmlns="http://www.w3.org/2000/svg"
  version="1.1"
  width="500"
  height="120"
  viewBox="251.092 496.181 260 60"
  id="gdgomsk-logo"
  xml:space="preserve">
  <g id="logo-title" style="display:inline">
    <text x="325.93616"
          y="507.3923"
          transform="scale(0.93435964,1.0702517)"
          id="title"
          xml:space="preserve"
          style="font-size:42px;font-style:normal;font-weight:normal;line-height:125%;letter-spacing:0px;word-spacing:0px;fill:#4e4e4e;fill-opacity:1;stroke:none;font-family:Open Sans"
      ><tspan id="title-gdg" style="font-weight:600">GDG</tspan> Omsk</text>
  </g>
  <g
     id="logo-image"><g
       transform="translate(-985.90425,-3367.8867)"
       id="g4264"><g
         id="Layer_24"><linearGradient
           x1="2465.9128"
           y1="241.4677"
           x2="2481.4009"
           y2="231.78979"
           id="bottom-path"
           gradientUnits="userSpaceOnUse"
           gradientTransform="matrix(1,0,0,-1,-1221.8945,4148.6489)"><stop
             id="stop3113"
             style="stop-color:#0a985c;stop-opacity:1"
             offset="0.54000002" /><stop
             id="stop3115"
             style="stop-color:#f6c25b;stop-opacity:1"
             offset="0.54000002" /></linearGradient><path
           d="m 1261.928,3907.385 c -1.179,-1.983 -4.039,-7.077 -6.177,-10.872 l -2.412,-4.248 c 0.555,1.118 0.515,2.779 -0.122,3.819 l -15.911,25.963 c -0.68,1.109 -0.172,2.02 1.132,2.02 h 14.207 c 1.303,0 2.93,-0.907 3.615,-2.014 l 6.427,-10.378 c -0.137,0.188 0.759,-1.74 -0.759,-4.29 l 0,0 z"
           id="path4221"
           style="fill:url(#bottom-path)" /><g
           id="g4223"><path
             d="m 1249.422,3902.275 -12.116,19.773 c -0.68,1.109 -0.171,2.02 1.132,2.02 h 14.208 c 1.303,0 2.929,-0.907 3.615,-2.014 l 6.419,-10.366 -13.258,-9.413 0,0 z"
             id="path4225"
             style="fill:none" /><path
             d="m 1267.036,3883.487 -10.776,-17.406 c -0.683,-1.108 -2.311,-2.013 -3.613,-2.013 h -14.209 c -1.304,0 -1.812,0.909 -1.132,2.02 l 13.797,22.513 7.757,-10.921 8.176,5.807 0,0 z"
             id="path4227"
             style="fill:none" /><path
             d="m 1272.339,3896.083 c 0.688,-1.108 0.688,-2.922 0,-4.03 l -5.304,-8.567 -8.177,-5.808 -7.757,10.921 2.114,3.448 c 0.681,1.11 0.681,2.928 0,4.038 l -3.795,6.19 13.257,9.413 9.66,-15.605 0,0 z"
             id="path4229"
             style="opacity:0.08999999;fill:#010101" /></g><linearGradient
           x1="2470.3823"
           y1="259.66019"
           x2="2486.2651"
           y2="269.58481"
           id="top-path"
           gradientUnits="userSpaceOnUse"
           gradientTransform="matrix(1,0,0,-1,-1221.8945,4148.6489)"><stop
             id="stop3123"
             style="stop-color:#5586c5;stop-opacity:1"
             offset="0.56999999" /><stop
             id="stop3125"
             style="stop-color:#d9423e;stop-opacity:1"
             offset="0.56999999" /></linearGradient><path
           d="m 1272.336,3892.058 -16.076,-25.973 c -0.685,-1.108 -2.313,-2.014 -3.615,-2.014 h -14.212 c -1.302,0 -1.81,0.908 -1.13,2.02 l 15.911,25.961 2.536,4.462 c 2.138,3.794 4.998,8.888 6.177,10.872 1.775,2.985 0.247,5.115 0.935,4.006 l 9.474,-15.304 c 0.686,-1.109 0.686,-2.92 0,-4.03 z m -19.103,0.024 c 0.016,0.027 0.036,0.057 0.057,0.094 l 0,0 c 0,0 0,0 0,0.01 -0.022,-0.039 -0.043,-0.072 -0.061,-0.101 z m 1.134,1.979 c 0.053,0.096 0.11,0.196 0.168,0.296 -0.058,-0.1 -0.114,-0.2 -0.168,-0.296 z m -0.014,-0.036 c 0.088,0.155 0.178,0.314 0.271,0.479 -0.093,-0.166 -0.184,-0.325 -0.271,-0.479 z"
           id="path4236"
           style="fill:url(#top-path)" /></g></g></g></svg>
